#!OML:ASF X:\für Bonn\!DataBase\2005_08_10_Bjorn_Final\c3d\bjorn.ASF
:FULLY-SPECIFIED
:DEGREES
310
root 0.370894 2.46843 10.1812 -2053.43 -5.84079 176.979
lowerback 53.9776 8.16694 17.0389
upperback 26.3014 3.78291 3.53381
thorax 10.612 -3.03877 -5.84182
lowerneck 7.78211 4.21722 -2.86527
upperneck 15.1256 4.6783 -5.15374
head 3.65962 1.44043 -1.21278
rclavicle 9.14409e-015 -2.06736e-014
rhumerus -59.7403 -6.01783 -76.2499
rradius 59.0002
rwrist -62.9099
rhand -14.7175 -31.3228
rfingers 7.12502
rthumb 11.4372 -60.9909
lclavicle 9.14409e-015 -2.06736e-014
lhumerus -71.0204 -41.3518 111.078
lradius 64.4458
lwrist 52.0479
lhand -35.077 35.1637
lfingers 7.12502
lthumb -8.21908 784.984
rfemur -426.052 -28.03 364.925
rtibia 103.819
rfoot 23.667 12.5892
rtoes -2.15341
lfemur -40.0217 76.644 48.3924
ltibia 153.336
lfoot -16.544 -34.0785
ltoes -8.8744
311
root 0.374368 2.43114 10.1733 -2053.71 -5.73329 176.96
lowerback 54.0829 8.05788 17.2843
upperback 26.3568 3.70613 3.51703
thorax 10.7116 -3.07276 -5.95235
lowerneck 7.91846 4.46723 -2.82646
upperneck 15.2023 4.97877 -4.91557
head 3.66091 1.59455 -1.14036
rclavicle 4.8901e-014 -1.74931e-014
rhumerus -60.4882 -5.32855 -76.6505
rradius 60.3539
rwrist -63.7135
rhand -15.2606 -31.5567
rfingers 7.12502
rthumb 10.9134 -61.2531
lclavicle 4.8901e-014 -1.74931e-014
lhumerus -71.9616 -41.8207 111.512
lradius 65.418
lwrist 52.5411
lhand -35.2534 35.4497
lfingers 7.12502
lthumb -8.3893 785.263
rfemur -425.866 -28.2754 364.867
rtibia 103.821
rfoot 23.7588 12.1196
rtoes -1.93983
lfemur -41.2729 76.4701 47.3926
ltibia 153.413
lfoot -16.1346 -34.0704
ltoes -8.75082
312
root 0.378239 2.39708 10.1668 -2054.01 -5.63842 176.936
lowerback 54.194 7.9455 17.5463
upperback 26.4241 3.62666 3.49101
thorax 10.8292 -3.10565 -6.08089
lowerneck 8.06937 4.70394 -2.68893
upperneck 15.2882 5.27059 -4.7451
head 3.66792 1.7468 -1.10795
rclavicle 4.57205e-014 -2.70347e-014
rhumerus -61.1586 -4.72286 -77.0475
rradius 61.6393
rwrist -64.4588
rhand -15.8109 -31.7728
rfingers 7.12502
rthumb 10.3826 -61.4965
lclavicle 4.57205e-014 -2.70347e-014
lhumerus -72.8358 -42.3132 111.892
lradius 66.3433
lwrist 53.0514
lhand -35.4472 35.7196
lfingers 7.12502
lthumb -8.57636 785.525
rfemur -425.65 -28.5202 364.79
rtibia 103.811
rfoot 23.7847 11.6261
rtoes -2.06339
lfemur -42.1016 76.2984 46.7474
ltibia 153.454
lfoot -15.675 -34.1177
ltoes -8.25785
313
root 0.381874 2.36583 10.1605 -2054.28 -5.56773 176.898
lowerback 54.2912 7.83728 17.753
upperback 26.4855 3.52912 3.46719
thorax 10.9284 -3.15446 -6.17848
lowerneck 8.28668 4.95338 -2.56832
upperneck 15.3681 5.5719 -4.61264
head 3.66225 1.90005 -1.08684
rclavicle -3.91606e-014 2.78299e-014
rhumerus -61.7696 -4.08913 -77.4074
rradius 62.8418
rwrist -65.1695
rhand -16.3318 -31.9844
rfingers 7.12502
rthumb 9.88002 -61.7326
lclavicle -3.91606e-014 2.78299e-014
lhumerus -73.6691 -42.7322 112.29
lradius 67.23
lwrist 53.5846
lhand -35.6707 35.9693
lfingers 7.12502
lthumb -8.79206 785.766
rfemur -425.425 -28.7812 364.691
rtibia 103.782
rfoot 23.8347 11.1236
rtoes -2.4179
lfemur -42.987 76.1109 45.9822
ltibia 153.499
lfoot -15.2522 -34.0887
ltoes -7.96123
314
root 0.385727 2.33751 10.1556 -2054.53 -5.52634 176.863
lowerback 54.402 7.72216 17.9371
upperback 26.5091 3.44417 3.43294
thorax 10.9763 -3.19102 -6.27465
lowerneck 8.62166 5.20026 -2.38
upperneck 15.4497 5.86328 -4.52302
head 3.64066 2.04895 -1.09437
rclavicle 9.81996e-014 -7.71285e-014
rhumerus -62.4132 -3.53224 -77.7424
rradius 64.016
rwrist -65.8236
rhand -16.8244 -32.194
rfingers 7.12502
rthumb 9.40482 -61.9642
lclavicle 9.81996e-014 -7.71285e-014
lhumerus -74.523 -43.1515 112.732
lradius 68.0595
lwrist 54.1655
lhand -35.9109 36.1918
lfingers 7.12502
lthumb -9.02387 785.979
rfemur -425.206 -29.0798 364.578
rtibia 103.745
rfoot 23.8442 10.6279
rtoes -3.14839
lfemur -43.9452 75.8941 45.066
ltibia 153.516
lfoot -14.8872 -34.0547
ltoes -7.68788
315
root 0.390093 2.31276 10.1517 -2054.75 -5.55401 176.81
lowerback 54.4657 7.62386 18.0653
upperback 26.5592 3.3435 3.37968
thorax 11.0499 -3.23546 -6.36913
lowerneck 8.99591 5.4356 -2.14478
upperneck 15.5102 6.14269 -4.46687
head 3.60829 2.19447 -1.12239
rclavicle 1.51076e-014 -2.06736e-014
rhumerus -62.9076 -3.05183 -78.0822
rradius 65.0319
rwrist -66.4293
rhand -17.345 -32.3533
rfingers 7.12502
rthumb 8.90241 -62.1455
lclavicle 1.51076e-014 -2.06736e-014
lhumerus -75.3149 -43.5849 113.137
lradius 68.8306
lwrist 54.7474
lhand -36.1776 36.3778
lfingers 7.12502
lthumb -9.28113 786.154
rfemur -425.018 -29.4413 364.412
rtibia 103.702
rfoot 23.8891 10.1817
rtoes -4.13873
lfemur -44.7102 75.7035 44.2009
ltibia 153.517
lfoot -14.6123 -33.9524
ltoes -7.42924
316
root 0.394015 2.29196 10.1485 -2054.95 -5.60207 176.747
lowerback 54.5388 7.52808 18.1647
upperback 26.5963 3.24129 3.32924
thorax 11.1004 -3.28415 -6.44549
lowerneck 9.46815 5.67835 -1.97451
upperneck 15.5464 6.41467 -4.3747
head 3.54694 2.33373 -1.13046
rclavicle -6.16232e-014 -4.13472e-014
rhumerus -63.3104 -2.64308 -78.3682
rradius 65.9191
rwrist -66.9141
rhand -17.7635 -32.4977
rfingers 7.12502
rthumb 8.49858 -62.3067
lclavicle -6.16232e-014 -4.13472e-014
lhumerus -76.0231 -43.9792 113.545
lradius 69.5428
lwrist 55.3625
lhand -36.4904 36.6112
lfingers 7.12502
lthumb -9.58298 786.373
rfemur -424.816 -29.8284 364.218
rtibia 103.639
rfoot 23.9546 9.73726
rtoes -5.26459
lfemur -45.4458 75.4985 43.2728
ltibia 153.5
lfoot -14.4144 -33.7628
ltoes -7.28698
317
root 0.398772 2.2747 10.1488 -2055.13 -5.68415 176.686
lowerback 54.6323 7.42248 18.2391
upperback 26.6084 3.13453 3.26189
thorax 11.1124 -3.3328 -6.52394
lowerneck 10.1255 5.89876 -1.74769
upperneck 15.5044 6.64975 -4.33059
head 3.43049 2.45895 -1.16936
rclavicle -4.96962e-015 3.02153e-014
rhumerus -63.6284 -2.30265 -78.6381
rradius 66.6527
rwrist -67.3331
rhand -18.2108 -32.6393
rfingers 7.12502
rthumb 8.06684 -62.4653
lclavicle -4.96962e-015 3.02153e-014
lhumerus -76.6989 -44.3543 113.937
lradius 70.1861
lwrist 55.9598
lhand -36.7804 36.8208
lfingers 7.12502
lthumb -9.86277 786.57
rfemur -424.61 -30.2396 364.009
rtibia 103.556
rfoot 24.0424 9.36726
rtoes -6.61441
lfemur -46.276 75.2294 42.1736
ltibia 153.465
lfoot -14.1481 -33.5493
ltoes -7.04672
318
root 0.403253 2.25999 10.1511 -2055.32 -5.79847 176.629
lowerback 54.7607 7.30776 18.3116
upperback 26.619 3.0153 3.19428
thorax 11.1177 -3.39161 -6.59705
lowerneck 10.8495 6.10952 -1.5477
upperneck 15.4478 6.86269 -4.25678
head 3.29654 2.57214 -1.19682
rclavicle 2.66371e-014 -2.62396e-014
rhumerus -63.8247 -2.02863 -78.8851
rradius 67.2366
rwrist -67.6885
rhand -18.6098 -32.6723
rfingers 7.12502
rthumb 7.68179 -62.5128
lclavicle 2.66371e-014 -2.62396e-014
lhumerus -77.2093 -44.6748 114.251
lradius 70.7172
lwrist 56.5117
lhand -37.0731 36.9822
lfingers 7.12502
lthumb -10.1452 786.718
rfemur -424.364 -30.6695 363.751
rtibia 103.461
rfoot 24.1598 8.97167
rtoes -7.89493
lfemur -47.3417 74.8335 40.7817
ltibia 153.421
lfoot -13.6715 -33.3781
ltoes -6.3747
319
root 0.408879 2.24809 10.1554 -2055.51 -5.91828 176.593
lowerback 54.9055 7.16463 18.3824
upperback 26.5932 2.88679 3.09931
thorax 11.075 -3.44652 -6.69079
lowerneck 11.7405 6.31465 -1.30713
upperneck 15.3151 7.06117 -4.18973
head 3.1117 2.68206 -1.23895
rclavicle 6.0033e-014 2.06736e-014
rhumerus -63.9507 -1.84073 -79.1683
rradius 67.6454
rwrist -67.9397
rhand -18.9562 -32.6844
rfingers 7.12502
rthumb 7.34741 -62.5368
lclavicle 6.0033e-014 2.06736e-014
lhumerus -77.6559 -44.9121 114.494
lradius 71.133
lwrist 56.9916
lhand -37.294 37.1177
lfingers 7.12502
lthumb -10.3583 786.843
rfemur -424.087 -31.1081 363.501
rtibia 103.341
rfoot 24.3194 8.60118
rtoes -9.03239
lfemur -48.1363 74.4493 39.6528
ltibia 153.371
lfoot -13.3095 -33.1918
ltoes -5.79252
320
root 0.415202 2.23963 10.1618 -2055.67 -6.08106 176.551
lowerback 54.9998 7.04005 18.402
upperback 26.5759 2.75947 3.00819
thorax 11.0371 -3.50156 -6.76116
lowerneck 12.8056 6.48445 -1.01214
upperneck 15.09 7.21547 -4.20828
head 2.87492 2.7732 -1.32433
rclavicle 4.87022e-014 -6.83819e-014
rhumerus -64.021 -1.67331 -79.4324
rradius 67.9481
rwrist -68.1521
rhand -19.3041 -32.6814
rfingers 7.12502
rthumb 7.01164 -62.5453
lclavicle 4.87022e-014 -6.83819e-014
lhumerus -77.9454 -45.0853 114.689
lradius 71.3943
lwrist 57.4507
lhand -37.5171 37.1942
lfingers 7.12502
lthumb -10.5735 786.908
rfemur -423.811 -31.531 363.205
rtibia 103.214
rfoot 24.5657 8.23494
rtoes -9.95379
lfemur -49.038 74.013 38.3214
ltibia 153.297
lfoot -12.8044 -33.0022
ltoes -4.80493
321
root 0.421764 2.23278 10.1673 -2055.79 -6.27614 176.522
lowerback 54.9531 6.95727 18.3558
upperback 26.6127 2.62578 2.96351
thorax 11.0642 -3.56641 -6.76312
lowerneck 13.8718 6.64071 -0.750875
upperneck 14.8559 7.356 -4.27767
head 2.64027 2.8539 -1.42244
rclavicle -2.66371e-014 9.22361e-014
rhumerus -63.9687 -1.47764 -79.6374
rradius 68.1684
rwrist -68.4092
rhand -19.6601 -32.6489
rfingers 7.12502
rthumb 6.66796 -62.5239
lclavicle -2.66371e-014 9.22361e-014
lhumerus -77.9348 -45.1885 114.769
lradius 71.4801
lwrist 57.8164
lhand -37.6945 37.2917
lfingers 7.12502
lthumb -10.7446 786.997
rfemur -423.593 -31.9638 362.899
rtibia 103.093
rfoot 24.9296 7.78938
rtoes -10.2386
lfemur -50.0997 73.6536 36.8167
ltibia 153.222
lfoot -12.1854 -32.8707
ltoes -3.54517
